<svg width="86" height="86" viewBox="0 0 86 86" fill="none" xmlns="http://www.w3.org/2000/svg">
<g clip-path="url(#clip0_3269_388)">
<path fill-rule="evenodd" clip-rule="evenodd" d="M43 0C18.7767 0 0 17.7435 0 41.71C0 54.246 5.13766 65.0787 13.5044 72.5608C14.2068 73.1895 14.6308 74.0702 14.6595 75.0127L14.8936 82.6615C14.9684 85.1014 17.4886 86.6888 19.7212 85.7032L28.256 81.9355C28.9795 81.6163 29.7903 81.5571 30.5527 81.7669C34.4747 82.8454 38.6489 83.4198 42.9998 83.4198C67.2229 83.4198 85.9998 65.6763 85.9998 41.7098C85.9998 17.7434 67.2231 0 43 0Z" fill="#0866FF"/>
<path fill-rule="evenodd" clip-rule="evenodd" d="M17.1787 53.9078L29.8099 33.8681C31.8192 30.6801 36.1217 29.8863 39.1364 32.1473L49.1826 39.682C50.1044 40.3736 51.3726 40.3697 52.2905 39.6731L65.8585 29.376C67.6696 28.0017 70.0334 30.169 68.8215 32.0922L56.1903 52.1321C54.1808 55.3199 49.8783 56.1139 46.8638 53.8527L36.8172 46.3178C35.8956 45.6266 34.6273 45.6303 33.7095 46.3269L20.1415 56.624C18.3304 57.9982 15.9664 55.8311 17.1787 53.9078Z" fill="white"/>
</g>
<defs>
<clipPath id="clip0_3269_388">
<rect width="86" height="86" fill="white"/>
</clipPath>
</defs>
</svg>
