<svg width="60" height="61" viewBox="0 0 60 61" fill="none" xmlns="http://www.w3.org/2000/svg">
<rect y="0.199982" width="60" height="60" rx="20" fill="url(#paint0_linear_1_88)"/>
<path d="M46.571 16.5866C46.583 15.9411 46.3395 15.3359 45.8851 14.8826C45.4318 14.4294 44.7764 14.2054 44.1844 14.2C41.4623 14.2513 34.1199 15.0323 27.1729 21.2681C25.9342 20.7864 24.0675 20.0709 22.6508 20.2533C20.5667 20.5209 17.4875 23.3565 14.4716 26.3821C14.0719 26.7829 13.9124 27.3509 14.0467 27.9014C14.18 28.4541 14.5841 28.8877 15.1259 29.0614L19.9211 30.6015C19.5596 31.2612 19.2035 31.9362 18.8594 32.6484C18.4269 33.5441 18.6104 34.6199 19.316 35.3234L25.4471 41.4543C25.8971 41.9054 26.5 42.1435 27.1084 42.1435C27.4525 42.1435 27.7999 42.0681 28.1232 41.9119C28.8354 41.5679 29.5104 41.2118 30.168 40.8513L31.7092 45.6453C31.8829 46.1871 32.3165 46.5912 32.8703 46.7256C32.9981 46.7561 33.127 46.7714 33.2559 46.7714C33.6764 46.7714 34.0817 46.6065 34.3897 46.2996C37.4154 43.2838 40.251 40.2058 40.5175 38.1228C40.7021 36.6931 39.9845 34.8373 39.5028 33.5987C45.7376 26.6518 46.5197 19.3096 46.571 16.5866ZM16.2696 27.3651C17.8698 25.7715 21.3455 22.404 22.9009 22.2041C23.5945 22.1157 24.6835 22.4444 25.6033 22.7776C23.979 24.4564 22.4017 26.4683 20.9315 28.8615L16.2696 27.3651ZM27.2679 40.1414C27.1292 40.2091 26.9512 40.1785 26.8376 40.0649L20.7054 33.9329C20.5929 33.8204 20.5612 33.6435 20.63 33.5025C28.2663 17.6854 40.618 16.2349 44.2226 16.1672H44.2313C44.3613 16.1672 44.4465 16.225 44.4967 16.2753C44.5383 16.3168 44.6093 16.4085 44.6071 16.5505C44.5372 20.155 43.0855 32.5064 27.2679 40.1414ZM38.5678 37.8716C38.3679 39.4259 35.0003 42.9026 33.4066 44.5017L31.908 39.841C34.3034 38.3708 36.3154 36.7925 37.9943 35.1683C38.3285 36.0869 38.6573 37.1737 38.5678 37.8716Z" fill="#193250"/>
<path d="M39.1948 27.4317C40.8084 25.8171 40.8084 23.1907 39.1948 21.5761C37.6295 20.013 34.9023 20.013 33.3392 21.5761C32.5576 22.3576 32.1268 23.3979 32.1268 24.5039C32.1268 25.6099 32.5587 26.6502 33.3392 27.4317C34.1207 28.2133 35.161 28.6441 36.267 28.6441C37.373 28.6441 38.4122 28.2133 39.1948 27.4317ZM37.7983 26.0363C36.9795 26.8563 35.5512 26.8563 34.7346 26.0363C34.3246 25.6275 34.0988 25.0827 34.0988 24.5039C34.0988 23.9251 34.3246 23.3815 34.7346 22.9715C35.1434 22.5626 35.6871 22.3368 36.2659 22.3368C36.8436 22.3368 37.3884 22.5626 37.7972 22.9715C38.6435 23.8166 38.6435 25.1912 37.7983 26.0363Z" fill="#193250"/>
<path d="M19.9359 41.1424L14.9862 46.0921" stroke="#193250" stroke-width="2" stroke-linecap="round"/>
<path d="M23.8831 43.3213L20.3475 46.8568" stroke="#193250" stroke-width="2" stroke-linecap="round"/>
<path d="M17.6525 37.0787L14.1169 40.6142" stroke="#193250" stroke-width="2" stroke-linecap="round"/>
<defs>
<linearGradient id="paint0_linear_1_88" x1="-3.96262" y1="67.3419" x2="69.7376" y2="50.1991" gradientUnits="userSpaceOnUse">
<stop stop-color="#29FBFB"/>
<stop offset="0.850962" stop-color="#07FFC9"/>
</linearGradient>
</defs>
</svg>
