<svg width="61" height="55" viewBox="0 0 61 55" fill="none" xmlns="http://www.w3.org/2000/svg">
<rect x="0.307861" y="-5.59998" width="60" height="60" rx="20" fill="url(#paint0_linear_1_115)"/>
<path d="M46.893 26.1855C46.3379 31.4043 43.3826 36.2948 38.4925 39.1198C30.3679 43.8133 19.979 41.028 15.2882 32.8986L14.7886 32.0327M13.1058 22.6141C13.661 17.3953 16.6163 12.5048 21.5064 9.67975C29.631 4.98623 40.0199 7.77157 44.7106 15.901L45.2103 16.7669M13.5004 34.8998L14.4629 31.0665L18.5004 31.8998M41.8411 16.7669L45.537 17.7331L46.5 14.3998" stroke="#193250" stroke-width="2" stroke-linecap="round" stroke-linejoin="round"/>
<path d="M27.9346 33.0853L27.3501 31.7709C27.1419 31.3018 26.7902 30.9108 26.3457 30.6542C25.9009 30.3977 25.3863 30.2884 24.8757 30.342L23.4457 30.4942C23.02 30.539 22.5906 30.4594 22.2092 30.2652C21.8278 30.0709 21.5109 29.7704 21.2968 29.3998C21.0826 29.0292 20.9806 28.6045 21.0031 28.1771C21.0255 27.7497 21.1716 27.338 21.4235 26.992L22.2701 25.8287C22.5721 25.4134 22.7347 24.9132 22.7346 24.3998C22.7347 23.8864 22.5721 23.3861 22.2701 22.9709L21.4235 21.8076C21.1716 21.4615 21.0255 21.0498 21.0031 20.6225C20.9806 20.1951 21.0826 19.7703 21.2968 19.3998C21.5107 19.029 21.8276 18.7283 22.209 18.534C22.5904 18.3397 23.02 18.2603 23.4457 18.3053L24.8801 18.4576C25.3908 18.5112 25.9053 18.4019 26.3501 18.1453C26.793 17.888 27.143 17.4971 27.3501 17.0287L27.9346 15.7142C28.1083 15.323 28.3918 14.9905 28.7508 14.7572C29.1097 14.5239 29.5287 14.3997 29.9568 14.3998C30.3849 14.3997 30.8038 14.5239 31.1628 14.7572C31.5217 14.9905 31.8053 15.323 31.979 15.7142L32.5679 17.0287C32.775 17.4971 33.125 17.888 33.5679 18.1453C34.0127 18.4019 34.5272 18.5112 35.0379 18.4576L36.4679 18.3053C36.8936 18.2603 37.3232 18.3397 37.7046 18.534C38.086 18.7283 38.4029 19.029 38.6168 19.3998C38.831 19.7703 38.933 20.1951 38.9105 20.6225C38.888 21.0498 38.742 21.4615 38.4901 21.8076L37.6435 22.9709C37.3415 23.3861 37.1789 23.8864 37.179 24.3998C37.1764 24.9146 37.3375 25.4169 37.639 25.8342L38.4857 26.9976C38.7376 27.3436 38.8836 27.7553 38.9061 28.1827C38.9286 28.6101 38.8265 29.0348 38.6123 29.4053C38.3984 29.7761 38.0816 30.0768 37.7001 30.2711C37.3187 30.4654 36.8891 30.5448 36.4635 30.4998L35.0335 30.3476C34.5228 30.2939 34.0082 30.4032 33.5635 30.6598C33.1215 30.9156 32.7715 31.3045 32.5635 31.7709L31.979 33.0853C31.8053 33.4766 31.5217 33.8091 31.1628 34.0424C30.8038 34.2757 30.3849 34.3999 29.9568 34.3998C29.5287 34.3999 29.1097 34.2757 28.7508 34.0424C28.3918 33.8091 28.1083 33.4766 27.9346 33.0853Z" stroke="#193250" stroke-width="2" stroke-linecap="round" stroke-linejoin="round"/>
<circle cx="30" cy="24.3998" r="2" fill="#193250"/>
<defs>
<linearGradient id="paint0_linear_1_115" x1="-3.65476" y1="61.5419" x2="70.0454" y2="44.3991" gradientUnits="userSpaceOnUse">
<stop stop-color="#29FBFB"/>
<stop offset="0.850962" stop-color="#07FFC9"/>
</linearGradient>
</defs>
</svg>
