<svg width="63" height="33" viewBox="0 0 63 33" fill="none" xmlns="http://www.w3.org/2000/svg">
<path d="M4 0.977661H59C60.933 0.977661 62.5 2.54467 62.5 4.47766V11.5519C62.4998 12.1528 62.0121 12.6398 61.4111 12.6398C58.9714 12.64 56.9933 14.6375 56.9932 17.0861C56.9932 19.5347 58.9713 21.5321 61.4111 21.5323C62.0123 21.5323 62.5 22.0201 62.5 22.6212V28.5226C62.4999 30.4555 60.9329 32.0226 59 32.0226H4C2.06708 32.0226 0.50013 30.4555 0.5 28.5226V22.6212C0.5 22.0201 0.987747 21.5323 1.58887 21.5323C4.02865 21.5321 6.00684 19.5347 6.00684 17.0861C6.0067 14.6375 4.02857 12.64 1.58887 12.6398C0.987867 12.6398 0.500194 12.1528 0.5 11.5519V4.47766L0.504883 4.29797C0.598422 2.44849 2.12727 0.977661 4 0.977661Z" fill="#D4FBFF" stroke="#73C4FF"/>
<path d="M18.934 21.5863L15.28 11.3803H17.338L19.242 17.4563L20.11 20.1023H20.222L21.09 17.4563L23.008 11.3803H25.052L21.412 21.5863H18.934ZM26.6219 21.5863V11.3803H28.9179L33.6639 19.0103H33.7479L33.6639 15.7343V11.3803H35.4559V21.5863H33.2719L28.5119 14.0263H28.4279L28.5119 17.0783V21.5863H26.6219ZM38.3701 21.5863V11.3803H42.6121C43.6014 11.3803 44.4414 11.595 45.1321 12.0243C45.8321 12.4443 46.3641 13.037 46.7281 13.8023C47.0921 14.5676 47.2741 15.4636 47.2741 16.4903C47.2741 17.2463 47.1714 17.9416 46.9661 18.5763C46.7608 19.2016 46.4574 19.7383 46.0561 20.1863C45.6548 20.6343 45.1648 20.9796 44.5861 21.2223C44.0168 21.465 43.3588 21.5863 42.6121 21.5863H38.3701ZM40.2181 19.9903H42.3181C42.7661 19.9903 43.1768 19.925 43.5501 19.7943C43.9234 19.6636 44.2454 19.4583 44.5161 19.1783C44.7868 18.889 44.9968 18.5203 45.1461 18.0723C45.2954 17.6243 45.3701 17.083 45.3701 16.4483C45.3701 15.6176 45.2394 14.9503 44.9781 14.4463C44.7261 13.933 44.3714 13.5596 43.9141 13.3263C43.4568 13.0836 42.9248 12.9623 42.3181 12.9623H40.2181V19.9903ZM37.0821 17.1063V15.7623H42.5001V17.1063H37.0821Z" fill="#2AA6FF"/>
</svg>
