<svg width="37" height="25" viewBox="0 0 37 25" fill="none" xmlns="http://www.w3.org/2000/svg">
<g opacity="0.6">
<path d="M23.034 4.19165H14.0684V20.2993H23.034V4.19165Z" fill="#FF5A00"/>
<path d="M14.6659 12.2455C14.6659 8.9729 16.2044 6.06835 18.5652 4.19167C16.8278 2.82561 14.6361 2 12.2455 2C6.58228 2 2 6.58228 2 12.2455C2 17.9087 6.58228 22.491 12.2455 22.491C14.6361 22.491 16.8278 21.6654 18.5652 20.2993C16.2011 18.4491 14.6659 15.5181 14.6659 12.2455Z" fill="#EB001B"/>
<path d="M35.1296 12.2455C35.1296 17.9087 30.5474 22.491 24.8842 22.491C22.4935 22.491 20.3019 21.6654 18.5645 20.2993C20.9551 18.4193 22.4637 15.5181 22.4637 12.2455C22.4637 8.9729 20.9252 6.06835 18.5645 4.19167C20.2986 2.82561 22.4902 2 24.8808 2C30.5474 2 35.1296 6.61212 35.1296 12.2455Z" fill="#F79E1B"/>
</g>
</svg>
