<svg width="37" height="25" viewBox="0 0 37 25" fill="none" xmlns="http://www.w3.org/2000/svg">
<g opacity="0.6">
<path d="M16.9981 6.0625C16.8523 6.06249 16.7113 6.11451 16.6005 6.2092C16.4896 6.30389 16.4162 6.43503 16.3935 6.57902L15.3886 12.9505L14.4654 18.8052L14.4648 18.8101L14.466 18.8052L15.3892 12.9505C15.4361 12.653 15.6923 12.434 15.9935 12.434H18.9372C21.8997 12.434 24.4142 10.2726 24.8734 7.34372C24.9085 7.12119 24.9272 6.90078 24.9314 6.68326V6.68293H24.9311C24.1782 6.28793 23.2941 6.0625 22.3254 6.0625H16.9981Z" fill="#001C64"/>
<path d="M24.9318 6.68311C24.9276 6.90062 24.9087 7.12125 24.8738 7.34378C24.4146 10.2727 21.9001 12.4341 18.9375 12.4341H15.9938C15.6927 12.4341 15.4365 12.653 15.3895 12.9506L14.4663 18.8053L13.8869 22.4784C13.8757 22.5494 13.8801 22.6219 13.8996 22.691C13.9192 22.7602 13.9535 22.8242 14.0001 22.8788C14.0468 22.9334 14.1047 22.9772 14.17 23.0073C14.2352 23.0374 14.3062 23.0529 14.378 23.0529H17.5732C17.719 23.053 17.86 23.0009 17.9708 22.9062C18.0817 22.8116 18.1551 22.6804 18.1778 22.5364L19.0196 17.1983C19.0667 16.9007 19.323 16.6814 19.6242 16.6814H21.5056C24.4682 16.6814 26.9823 14.5201 27.4416 11.5915C27.7676 9.51233 26.7212 7.62094 24.9318 6.68311Z" fill="#0070E0"/>
<path d="M13.3679 1.81445C13.2221 1.81446 13.0811 1.86653 12.9702 1.96128C12.8594 2.05604 12.786 2.18726 12.7633 2.33131L10.2561 18.2303C10.2449 18.3013 10.2492 18.3739 10.2687 18.443C10.2882 18.5122 10.3225 18.5763 10.3692 18.6309C10.4159 18.6856 10.4738 18.7294 10.5391 18.7595C10.6043 18.7896 10.6753 18.8052 10.7472 18.8052H14.4654L15.3887 12.9505L16.3935 6.57899C16.4162 6.435 16.4896 6.30386 16.6005 6.20917C16.7113 6.11448 16.8523 6.06246 16.9981 6.06247H22.3252C23.2941 6.06247 24.1782 6.28823 24.9312 6.68267C24.9825 4.01622 22.7823 1.81445 19.7568 1.81445H13.3679Z" fill="#003087"/>
</g>
</svg>
