<svg width="48" height="25" viewBox="0 0 48 25" fill="none" xmlns="http://www.w3.org/2000/svg">
<g opacity="0.6">
<path d="M21.1047 19.1002H17.6777L19.8212 5.98779H23.2479L21.1047 19.1002Z" fill="#00579F"/>
<path d="M33.5259 6.30825C32.85 6.04294 31.7779 5.75 30.4522 5.75C27.068 5.75 24.6849 7.53543 24.6703 10.0881C24.6422 11.9714 26.3766 13.0174 27.6737 13.6454C28.9995 14.2871 29.4502 14.7059 29.4502 15.2779C29.4367 16.1563 28.3789 16.5612 27.3922 16.5612C26.0241 16.5612 25.291 16.3525 24.1769 15.8637L23.7256 15.6542L23.2461 18.5977C24.0498 18.96 25.5306 19.2815 27.068 19.2956C30.6638 19.2956 33.0048 17.5377 33.0325 14.8175C33.0462 13.3248 32.1304 12.1811 30.156 11.2465C28.9574 10.6465 28.2234 10.2419 28.2234 9.62808C28.2374 9.07001 28.8442 8.49842 30.1972 8.49842C31.3113 8.47042 32.1298 8.73536 32.7499 9.00049L33.0599 9.13972L33.5259 6.30825Z" fill="#00579F"/>
<path d="M38.0813 14.455C38.3635 13.7017 39.4495 10.7862 39.4495 10.7862C39.4353 10.8142 39.7312 10.019 39.9004 9.53085L40.1399 10.6607C40.1399 10.6607 40.7888 13.7994 40.9297 14.455C40.3942 14.455 38.7582 14.455 38.0813 14.455ZM42.3114 5.98779H39.6607C38.8433 5.98779 38.2222 6.22474 37.8696 7.07574L32.7793 19.1001H36.3751C36.3751 19.1001 36.9671 17.4817 37.0943 17.1331C37.4888 17.1331 40.9867 17.1331 41.4942 17.1331C41.5926 17.5935 41.9031 19.1001 41.9031 19.1001H45.0761L42.3114 5.98779Z" fill="#00579F"/>
<path d="M14.8162 5.98779L11.4602 14.9292L11.0934 13.1158C10.4729 11.0233 8.52702 8.74993 6.35547 7.61953L9.42952 19.0863H13.0534L18.4399 5.98779H14.8162Z" fill="#00579F"/>
<path d="M8.34343 5.98779H2.82984L2.77344 6.25273C7.07438 7.34086 9.92281 9.96376 11.0931 13.1164L9.89451 7.09001C9.69718 6.25255 9.09077 6.01542 8.34343 5.98779Z" fill="#FAA61A"/>
</g>
</svg>
